<svg width="19" height="16" viewBox="0 0 19 16" fill="none" xmlns="http://www.w3.org/2000/svg">
<path d="M17.0506 4.63718C16.0823 4.02531 15.4749 3.20718 14.9894 1.94739C14.8089 1.47908 14.3586 1.17627 13.8422 1.17627C13.2871 1.17627 12.7795 1.50697 12.4497 2.08343C12.2646 2.4019 12.1508 2.75157 12.1152 3.11158C11.7732 2.53544 11.0783 2.41287 10.7488 2.82257C10.7488 2.82257 8.03916 0.919551 7.11491 0.313633C5.88665 -0.490705 4.2597 0.400148 4.30042 1.32015C2.74948 0.543399 1.04687 1.91479 1.57143 3.352C0.971544 3.25044 -0.56277 4.71962 1.05026 5.84808C-0.0670529 5.95403 -0.501018 7.57023 0.797484 8.30592C0.797484 8.30592 0.803591 8.52941 0.820895 8.63912C-0.0348195 8.87924 -0.33001 10.3738 0.497542 10.8456C0.497542 10.8456 6.46583 14.3663 8.52029 15.4255C9.63659 16.001 11.5587 16.227 13.2712 15.7133C14.9341 15.554 16.3449 14.7397 17.4785 13.2884C20.5984 9.29426 18.1269 5.31739 17.0506 4.63718M16.6852 12.899C15.386 14.5855 13.5202 14.7604 12.0924 14.7604C9.76179 14.7604 8.33809 13.7281 8.33809 13.7281L1.9416 9.31588C0.730642 8.54352 1.4598 7.31288 2.3094 7.33545L7.39789 10.5387L8.02424 10.5747C8.02424 10.5747 3.47931 7.56051 2.00777 6.49945C1.14866 5.88005 1.43096 4.69705 2.54318 4.46196L8.90709 8.68238L9.53276 8.71843L2.73489 3.84789C1.29863 2.87805 2.73998 1.04932 4.13246 1.98061C5.73837 3.05453 10.5697 6.45839 10.5697 6.45839L11.196 6.49475L4.83583 1.62766C4.78087 0.876607 5.86222 0.22367 6.72675 0.821125C8.46533 2.02262 13.6838 5.62333 13.6838 5.62333C13.5494 5.2757 13.4822 5.01428 13.4822 5.01428C13.4822 5.01428 12.4908 3.49149 13.0279 2.38278C13.4995 1.41043 14.4536 1.56841 14.646 2.09095C15.1573 3.48209 15.687 4.30774 16.7466 5.00362C18.0998 5.89228 19.4834 9.26824 16.6852 12.899" fill="#85B6FF"/>
</svg>
