<svg width="16" height="18" viewBox="0 0 16 18" fill="none" xmlns="http://www.w3.org/2000/svg">
<path d="M4.48825 7.09334C3.93321 7.09334 3.48478 7.66273 3.48478 8.34039C3.48478 9.08621 3.93321 9.65961 4.48825 9.65961C5.0433 9.65961 5.46351 9.08822 5.46351 8.37648C5.46351 7.66474 5.04644 7.09334 4.48825 7.09334ZM8.00042 7.05725C7.4438 7.05725 7.02517 7.62865 7.02517 8.34039C7.02517 9.05213 7.47203 9.58744 8.00042 9.58744C8.52881 9.58744 8.97567 9.01604 8.97567 8.34039C8.97567 7.66474 8.5586 7.05725 8.00042 7.05725ZM11.5126 7.09334C10.956 7.09334 10.5373 7.66474 10.5373 8.37648C10.5373 9.08822 10.9842 9.65961 11.5126 9.65961C12.0692 9.65961 12.5157 9.08822 12.5157 8.37648C12.5161 7.66273 12.0708 7.09334 11.5126 7.09334ZM8.00042 0C3.56631 0 0.000838 3.73393 0.000838 8.34039C0.000838 10.2499 0.625188 11.9993 1.66002 13.4048C1.19372 14.9886 0.221603 16.3271 0.205923 16.3419C-0.00179612 16.6226 -0.0566423 17.0336 0.0609211 17.3845C0.15506 17.7674 0.423552 18 0.725222 18C2.65346 18 4.14645 16.9675 5.0872 16.1455C5.99253 16.5063 6.97374 16.7169 8.00042 16.7169C12.4345 16.7169 16 12.9825 16 8.41256C16 3.84259 12.4345 0 8.00042 0ZM8.00042 14.7922C7.16158 14.7922 6.33465 14.6268 5.54316 14.3062L4.82975 14.0205L4.21857 14.5716C3.77171 14.9774 3.15645 15.4289 2.41576 15.7345C2.647 15.2485 2.86639 14.7019 3.03886 14.1205L3.37189 12.9978L2.72527 12.1208C2.16176 11.3477 1.47971 10.0686 1.47971 8.37648C1.47971 4.83783 4.40359 1.96079 7.97408 1.96079C11.5446 1.96079 14.4684 4.83783 14.4684 8.37648C14.4684 11.9151 11.6004 14.7922 8.00042 14.7922Z" fill="#85B6FF"/>
</svg>
