<svg width="24" height="20" viewBox="0 0 24 20" fill="none" xmlns="http://www.w3.org/2000/svg">
<path d="M23.1429 0H0.857143C0.383036 0 0 0.40625 0 0.909091V19.0909C0 19.5938 0.383036 20 0.857143 20H23.1429C23.617 20 24 19.5938 24 19.0909V0.909091C24 0.40625 23.617 0 23.1429 0ZM7.33929 4.09091C8.28482 4.09091 9.05357 4.90625 9.05357 5.90909C9.05357 6.91193 8.28482 7.72727 7.33929 7.72727C6.39375 7.72727 5.625 6.91193 5.625 5.90909C5.625 4.90625 6.39375 4.09091 7.33929 4.09091ZM21.1045 16.5085C21.0654 16.5433 21.0161 16.5624 20.9652 16.5625H3.03214C2.91429 16.5625 2.81786 16.4602 2.81786 16.3352C2.81786 16.2813 2.83661 16.2301 2.86875 16.1875L7.43036 10.4489C7.50536 10.3523 7.64196 10.3409 7.73304 10.4205C7.74107 10.429 7.75179 10.4375 7.75982 10.4489L10.4223 13.8011L14.6571 8.47443C14.7321 8.37784 14.8688 8.36648 14.9598 8.44602C14.9679 8.45455 14.9786 8.46307 14.9866 8.47443L21.1366 16.1903C21.2062 16.2841 21.1955 16.429 21.1045 16.5085Z" fill="#85B6FF"/>
</svg>
