<svg width="17" height="17" viewBox="0 0 17 17" fill="none" xmlns="http://www.w3.org/2000/svg">
<path d="M0.721029 0.0510091L16.076 7.61701C16.1598 7.65827 16.2303 7.72215 16.2796 7.80141C16.3289 7.88068 16.355 7.97216 16.355 8.06551C16.355 8.15886 16.3289 8.25034 16.2796 8.3296C16.2303 8.40887 16.1598 8.47275 16.076 8.51401L0.720029 16.08C0.634 16.1223 0.537638 16.1389 0.442419 16.128C0.347199 16.117 0.257135 16.0789 0.182953 16.0182C0.10877 15.9575 0.0535965 15.8768 0.0240021 15.7856C-0.00559231 15.6945 -0.00835991 15.5967 0.0160287 15.504L1.53703 9.75901C1.56168 9.66605 1.61263 9.58217 1.68375 9.51743C1.75488 9.45269 1.84316 9.40984 1.93803 9.39401L8.81903 8.24701C8.86003 8.24022 8.8987 8.22331 8.93152 8.19782C8.96435 8.17233 8.9903 8.13905 9.00703 8.10101L9.02503 8.04101C9.03437 7.9854 9.02463 7.92826 8.9974 7.87889C8.97017 7.82951 8.92704 7.79079 8.87503 7.76901L8.81903 7.75301L1.90003 6.60001C1.80535 6.584 1.71727 6.54107 1.64634 6.47635C1.57541 6.41162 1.52461 6.32784 1.50003 6.23501L0.0160287 0.628009C-0.0086136 0.535249 -0.00603746 0.437356 0.0234497 0.34602C0.0529368 0.254684 0.108089 0.173765 0.18232 0.112925C0.256551 0.052085 0.346724 0.0138953 0.442072 0.00291623C0.537419 -0.00806285 0.633913 0.00863275 0.720029 0.0510091H0.721029Z" fill="#85B6FF"/>
</svg>
