<svg width="16" height="18" viewBox="0 0 16 18" fill="none" xmlns="http://www.w3.org/2000/svg">
<path d="M13 12.442C12.367 12.442 11.796 12.688 11.363 13.084L5.425 9.62101C5.471 9.43301 5.5 9.23701 5.5 9.03701C5.5 8.83701 5.471 8.64201 5.425 8.45401L11.3 5.02501C11.76 5.4584 12.368 5.69983 13 5.70001C14.379 5.70001 15.5 4.57901 15.5 3.20001C15.5 1.82101 14.379 0.700012 13 0.700012C11.621 0.700012 10.5 1.82101 10.5 3.20001C10.5 3.40001 10.529 3.59601 10.575 3.78301L4.7 7.21201C4.23976 6.77906 3.63188 6.53769 3 6.53701C1.621 6.53701 0.5 7.65801 0.5 9.03701C0.5 10.416 1.621 11.537 3 11.537C3.63197 11.5368 4.24004 11.2954 4.7 10.862L10.638 14.325C10.5943 14.5037 10.5718 14.687 10.571 14.871C10.5712 15.3511 10.7137 15.8204 10.9806 16.2196C11.2475 16.6187 11.6267 16.9297 12.0703 17.1134C12.5139 17.297 13.002 17.345 13.4729 17.2513C13.9438 17.1576 14.3764 16.9264 14.7159 16.5869C15.0554 16.2474 15.2866 15.8148 15.3803 15.3439C15.474 14.873 15.426 14.3849 15.2424 13.9413C15.0587 13.4977 14.7477 13.1185 14.3485 12.8516C13.9494 12.5848 13.4801 12.4422 13 12.442V12.442Z" fill="#85B6FF"/>
</svg>
